<svg width="98" height="32" viewBox="0 0 98 32" fill="none" xmlns="http://www.w3.org/2000/svg">
<g clip-path="url(#clip0_816_5037)">
<path d="M36.3499 15.0104C43.8706 16.3321 58.2914 17.4738 72.011 17.6289C62.393 16.3196 54.8103 13.8748 50.8762 11.3679C49.2381 10.2138 48.3321 9.00377 48.1211 7.78135C47.9536 6.00047 48.6486 4.63534 50.3488 3.40671C50.3674 3.3943 50.386 3.38189 50.4108 3.36948C50.5287 3.28261 50.6528 3.19574 50.7831 3.11507C50.8204 3.09646 50.8514 3.07164 50.8948 3.04682C51.0189 2.96615 51.1555 2.88548 51.2982 2.80481C51.3168 2.7924 51.3354 2.7862 51.3478 2.77379C51.6829 2.58143 52.0428 2.38907 52.4337 2.20291V2.16568C51.4347 2.22153 39.5704 2.60004 36.7595 6.55893C36.4058 6.9995 36.2072 7.37181 36.0955 7.91166C35.4688 10.9025 42.6358 13.6514 49.0457 14.7497C51.5774 15.1841 55.0461 15.6991 58.31 16.1707C59.8116 16.3879 61.2699 16.5865 62.5729 16.7664C62.2627 16.7354 61.9214 16.7106 61.5367 16.6982C57.0317 16.4996 47.6557 15.9722 38.379 14.0051C32.1987 12.6958 27.9792 10.7102 27.9358 8.79279C27.8923 6.5217 34.5629 4.4678 40.9169 2.94133C47.4262 1.38383 55.89 0.819164 61.1892 1.69409C63.2679 2.03537 64.7696 2.58143 65.235 3.43774C65.6569 4.43677 64.8751 5.59093 62.5481 6.81335L62.5605 6.83817C65.2598 6.61478 73.5561 4.48021 73.1714 2.73656C72.8115 1.19768 65.2536 -0.0495585 55.7473 0.00628789C52.1855 -0.0495585 47.966 0.223468 42.8654 0.980498C29.0341 3.0282 11.095 10.5737 36.3562 15.0104M46.5202 23.9644C46.9546 23.2198 47.5565 22.9219 48.965 22.7606C49.8027 22.6675 50.7273 22.6365 52.3468 22.6303C52.3655 22.6303 52.3841 22.6303 52.3965 22.6303C53.8981 22.6303 56.5539 22.7482 58.2107 22.8599L58.3907 22.8723L59.0981 20.3964L58.8188 20.3778C56.9387 20.2475 54.4566 20.1544 52.6385 20.1544C52.6075 20.1544 52.5702 20.1544 52.533 20.1544C49.8462 20.1544 48.2949 20.3034 46.9235 20.6136C44.8262 21.0852 43.3804 22.2518 42.7599 23.9954C42.5241 24.6408 42.2697 25.3544 42.0649 26.0679C41.8601 26.7877 41.7236 27.4579 41.5871 28.097C41.525 28.3825 41.494 28.6555 41.494 28.9161C41.4816 30.2626 42.3565 31.2058 43.9078 31.5905C45.0806 31.8884 46.5264 32.0001 49.0953 32.0001H49.2753C51.1058 32.0001 53.6872 31.9194 55.6852 31.7767L55.8403 31.7643L56.5539 29.2698L56.2313 29.2946C54.4876 29.4187 51.7139 29.549 50.2247 29.549H49.9889C48.5183 29.549 47.6619 29.518 46.9173 29.4373C46.2658 29.3691 45.8252 29.2388 45.5832 29.0775C45.3598 28.9161 45.2668 28.7362 45.2543 28.4011V28.3887V28.3328C45.2543 28.0474 45.3909 27.5448 45.4343 27.3959L45.4591 27.2966H56.8456L57.5716 24.7587H46.1913C46.272 24.5042 46.3961 24.163 46.5078 23.9706M58.1363 32.0001H61.8594L65.2536 20.1544H61.5367L58.1363 32.0001ZM97.0302 29.2946C95.2865 29.4125 92.5128 29.5428 91.0298 29.549C90.9491 29.549 90.8685 29.549 90.794 29.549C89.3172 29.549 88.4609 29.518 87.7162 29.4373C87.0585 29.3629 86.6241 29.2388 86.3821 29.0712C86.1463 28.9037 86.0533 28.7238 86.0471 28.3639V28.2832V28.2708C86.0657 27.9853 86.2022 27.5324 86.2456 27.3834L88.3182 20.1482H84.6199L82.3426 28.0784C82.2805 28.3701 82.2495 28.6431 82.2495 28.8913C82.2371 30.2502 83.1368 31.1996 84.6881 31.5843C85.8609 31.8822 87.3005 31.9939 89.857 31.9939H90.0556C91.8799 31.9939 94.4675 31.9132 96.4655 31.7705L96.6207 31.7581L97.328 29.2636L97.0116 29.2884L97.0302 29.2946ZM74.3255 29.549C74.2386 29.549 74.1642 29.549 74.0897 29.549C72.6129 29.549 71.7628 29.518 71.0182 29.4373C70.3666 29.3629 69.9261 29.2388 69.6841 29.0712C69.4483 28.9037 69.3552 28.7238 69.349 28.3577V28.2832V28.2708C69.3676 27.9853 69.4979 27.5324 69.5475 27.3834L71.6201 20.1544H67.9218L65.6445 28.0846C65.5824 28.3763 65.5576 28.6493 65.5576 28.8975C65.5452 30.2564 66.445 31.2058 67.9963 31.5905C69.169 31.8884 70.6086 32.0001 73.1652 32.0001H73.3637C75.1942 32.0001 77.7756 31.9194 79.7799 31.7767L79.935 31.7643L80.6424 29.2698L80.3259 29.2946C78.5823 29.4125 75.8085 29.5428 74.3255 29.549ZM14.8243 24.9138L14.1479 27.2655C14.1045 27.4207 13.9369 27.9419 13.7694 28.2398C13.335 28.9844 12.7331 29.2822 11.3183 29.4373C10.5551 29.518 9.71741 29.549 8.33986 29.549C6.96852 29.549 6.14944 29.5118 5.43585 29.4373C4.7781 29.3691 4.34374 29.2388 4.09553 29.0775C3.86594 28.9161 3.77287 28.7362 3.76046 28.4011L3.77287 28.3887L3.76046 28.3328C3.76046 28.0474 3.89076 27.5448 3.9404 27.3959L4.61056 25.0441C4.654 24.889 4.84636 24.2685 5.0201 23.9768C5.44826 23.2322 6.05016 22.9343 7.46493 22.773C8.22817 22.6861 9.07207 22.6489 10.4496 22.6427C11.821 22.6427 12.6462 22.6861 13.3598 22.773C14.0114 22.8475 14.4519 22.9716 14.6939 23.1391C14.9297 23.3129 15.0166 23.4928 15.029 23.8589C15.029 23.8589 15.029 23.8589 15.029 23.8837C15.029 24.163 14.8677 24.7835 14.8243 24.9324M16.3817 20.6136C15.1842 20.3034 13.7135 20.1606 11.0329 20.1544C8.34607 20.1606 6.79478 20.3034 5.42964 20.6136C3.3323 21.0852 1.8865 22.2518 1.26598 23.9954C1.03639 24.6408 0.775774 25.3544 0.571004 26.0679C0.366234 26.7877 0.22972 27.4579 0.0932067 28.097C0.0311551 28.3825 0.000129351 28.6617 0.000129351 28.9223C-0.012281 30.2626 0.868852 31.212 2.41394 31.5905C3.58671 31.8884 5.03251 32.0001 7.60145 32.0001H7.92412C10.4931 32.0001 12.0009 31.8884 13.335 31.5905C15.4386 31.1252 16.8782 29.9648 17.5049 28.2211C17.7345 27.582 17.9827 26.9119 18.1937 26.1858C18.3984 25.466 18.5536 24.7525 18.6901 24.1133C18.7521 23.8217 18.7831 23.5487 18.7831 23.288C18.7956 21.9477 17.9206 20.9983 16.3755 20.6136M22.891 20.1544H20.3406L19.6332 22.6179H22.1836L22.891 20.1544ZM37.9074 20.1544L35.686 27.8923L27.6317 20.1544H24.1134L20.7192 32.0001H24.4422L26.6637 24.256L34.718 32.0001H38.2363L41.6305 20.1544H37.9074Z" fill="#111111"></path>
</g>
<defs>
<clipPath id="clip0_816_5037">
<rect width="97.3465" height="32" fill="white"></rect>
</clipPath>
</defs>
</svg>
