<svg width="51" height="45" viewBox="0 0 51 45" fill="none" xmlns="http://www.w3.org/2000/svg"><path d="M4.65155 8.91977H46.4654L43.2862 16.6232H7.50883L4.65155 8.91977Z" fill="#33DFC0" fill-opacity="0.84"></path><path d="M0.383906 5.46242C-0.877913 2.91052 1.1248 0 4.1428 0H46.6657C49.7595 0 51.7587 3.04468 50.3484 5.60773C49.6406 6.8942 48.2185 7.70343 46.6657 7.70343H4.1428C2.5273 7.70343 1.05946 6.82832 0.383906 5.46242Z" fill="#26A28B" fill-opacity="0.84"></path><path d="M8.57159 17.8395H42.5453L39.962 26.3538H10.8931L8.57159 17.8395Z" fill="#26A28B" fill-opacity="0.84"></path><path d="M19.8962 36.8954H31.2208L27.1062 45.0043H23.8721L19.8962 36.8954Z" fill="#26A28B" fill-opacity="0.84"></path><path d="M12.9272 27.5701H38.6253L36.6713 35.679H14.6834L12.9272 27.5701Z" fill="#3CCFB5"></path></svg>