<svg viewBox="0 0 16 16" fill="none" xmlns="http://www.w3.org/2000/svg" id="Java-Script--Streamline-Unicons" height="16" width="16">
  <desc>
    Java Script Streamline Icon: https://streamlinehq.com
  </desc>
  <path d="M9.942733333333333 10.2602c-0.5894666666666666 0.057466666666666666 -1.1833999999999998 -0.05059999999999999 -1.7148666666666665 -0.31226666666666664 -0.12033333333333332 -0.09626666666666667 -0.21966666666666668 -0.21619999999999998 -0.29186666666666666 -0.3524666666666666 -0.07219999999999999 -0.1362 -0.11573333333333333 -0.2857333333333333 -0.12786666666666666 -0.4394 -0.0002666666666666667 -0.023066666666666666 -0.0051333333333333335 -0.045799999999999993 -0.014199999999999999 -0.06686666666666666 -0.009 -0.0212 -0.022266666666666664 -0.040266666666666666 -0.03873333333333333 -0.05633333333333333 -0.01653333333333333 -0.016 -0.036066666666666664 -0.02853333333333333 -0.057466666666666666 -0.03693333333333333 -0.021466666666666665 -0.0084 -0.04426666666666666 -0.012466666666666668 -0.06726666666666667 -0.011999999999999999 -0.2482 -0.0029333333333333334 -0.4964 -0.002333333333333333 -0.7445333333333333 -0.0002666666666666667 -0.0434 -0.004399999999999999 -0.08673333333333333 0.008466666666666666 -0.12066666666666666 0.03573333333333333 -0.03406666666666666 0.027333333333333334 -0.05586666666666666 0.06693333333333333 -0.0608 0.11033333333333334 -0.014066666666666667 0.26959999999999995 0.031466666666666664 0.5390666666666666 0.13353333333333334 0.7890666666666666 0.10206666666666667 0.24993333333333334 0.25806666666666667 0.47433333333333333 0.4569333333333333 0.657 0.5019333333333333 0.39166666666666666 1.1113333333333333 0.6209333333333333 1.7468666666666666 0.6571333333333333 0.6623333333333333 0.07686666666666667 1.3325999999999998 0.0484 1.986 -0.08426666666666667 0.5017333333333334 -0.09359999999999999 0.9617333333333333 -0.3415333333333333 1.3157999999999999 -0.7090666666666667 0.19566666666666666 -0.24126666666666666 0.32686666666666664 -0.5284666666666666 0.3811333333333333 -0.8344 0.05433333333333333 -0.3059333333333333 0.03 -0.6205999999999999 -0.07066666666666666 -0.9145333333333332 -0.08460000000000001 -0.2072 -0.2155333333333333 -0.3923333333333333 -0.38280000000000003 -0.5410666666666666 -0.16720000000000002 -0.14873333333333333 -0.36626666666666663 -0.2572 -0.5818666666666666 -0.3171333333333333 -1.0041333333333333 -0.3523333333333333 -2.0888666666666666 -0.32566666666666666 -3.1124666666666667 -0.5933999999999999 -0.17773333333333333 -0.05586666666666666 -0.39493333333333336 -0.11666666666666665 -0.47413333333333335 -0.3047333333333333 -0.04573333333333333 -0.1324 -0.04886666666666667 -0.27586666666666665 -0.008933333333333333 -0.4101333333333333 0.039999999999999994 -0.13426666666666665 0.121 -0.2526 0.2318 -0.3384666666666667 0.3213333333333333 -0.18366666666666667 0.6873999999999999 -0.2748 1.0573333333333332 -0.26326666666666665 0.5022 -0.047266666666666665 1.0084666666666666 0.0252 1.4772666666666665 0.21139999999999998 0.14079999999999998 0.0828 0.26193333333333335 0.19526666666666664 0.35486666666666666 0.3296 0.093 0.13433333333333333 0.1556 0.28726666666666667 0.18346666666666667 0.4482 0.0013999999999999998 0.04753333333333333 0.020466666666666668 0.09286666666666667 0.05346666666666666 0.127s0.0776 0.054799999999999995 0.125 0.0578c0.24646666666666664 0.004999999999999999 0.493 0.0013333333333333333 0.7394666666666666 0.0016666666666666666 0.04273333333333333 0.0051333333333333335 0.08586666666666666 -0.005333333333333333 0.12146666666666667 -0.02946666666666667 0.035666666666666666 -0.024266666666666666 0.06133333333333333 -0.060399999999999995 0.07239999999999999 -0.102 0.0021999999999999997 -0.33246666666666663 -0.08246666666666666 -0.6596666666666666 -0.24566666666666664 -0.9492666666666666 -0.16319999999999998 -0.28959999999999997 -0.39926666666666666 -0.5315333333333333 -0.6846666666666665 -0.7018666666666666 -0.7879333333333333 -0.3636 -1.6625333333333332 -0.4974666666666666 -2.523133333333333 -0.3860666666666666 -0.6304666666666666 0.025866666666666666 -1.2328666666666666 0.26786666666666664 -1.7060666666666666 0.6854666666666667 -0.21719999999999998 0.23406666666666667 -0.3643333333333333 0.5245333333333333 -0.4245333333333333 0.8380666666666667 -0.060200000000000004 0.3137333333333333 -0.031133333333333332 0.6378666666666666 0.08399999999999999 0.9358 0.08953333333333333 0.1996 0.22133333333333333 0.3773333333333333 0.38626666666666665 0.5210666666666666 0.16486666666666666 0.14373333333333332 0.359 0.24993333333333334 0.5689333333333333 0.3114 1.0008 0.3615333333333333 2.0976 0.24546666666666667 3.1081333333333334 0.5651333333333333 0.19693333333333332 0.0668 0.42619999999999997 0.16893333333333332 0.4865333333333333 0.38813333333333333 0.0324 0.13133333333333333 0.029933333333333333 0.26886666666666664 -0.007133333333333333 0.399 -0.037066666666666664 0.13006666666666666 -0.10746666666666667 0.24826666666666666 -0.2043333333333333 0.34273333333333333 -0.42019999999999996 0.26106666666666667 -0.9127333333333333 0.3816 -1.406 0.3439333333333333Zm4.561999999999999 -6.6212c-1.9538666666666666 -1.1048666666666667 -3.908333333333333 -2.2088 -5.863066666666667 -3.311733333333333C8.445533333333334 0.21760000000000002 8.224533333333333 0.15999999999999998 7.9998000000000005 0.15999999999999998c-0.22466666666666668 0 -0.44566666666666666 0.0576 -0.6418666666666666 0.16726666666666667C5.410733333333333 1.4268666666666665 3.4634 2.5263999999999998 1.516 3.625866666666666c-0.18946666666666667 0.10326666666666667 -0.3478 0.2553333333333333 -0.4586666666666666 0.4404666666666666 -0.11086666666666667 0.18506666666666666 -0.17020000000000002 0.39646666666666663 -0.17179999999999998 0.6122666666666666v6.6438c0.0031333333333333335 0.21966666666666668 0.06559999999999999 0.43439999999999995 0.18086666666666665 0.6214666666666666 0.11533333333333332 0.187 0.2790666666666667 0.3393333333333333 0.4739333333333333 0.44086666666666663 0.5593999999999999 0.3045333333333333 1.1028666666666667 0.6399999999999999 1.6723999999999999 0.9242 0.3287333333333333 0.17573333333333332 0.6938 0.27259999999999995 1.0664666666666665 0.2827333333333333 0.37259999999999993 0.010333333333333333 0.7424666666666666 -0.06626666666666667 1.0803333333333334 -0.22373333333333334 0.25279999999999997 -0.15833333333333333 0.4585333333333333 -0.38166666666666665 0.5956666666666666 -0.6465333333333333 0.1372 -0.2649333333333333 0.2008 -0.5617333333333333 0.18426666666666663 -0.8596666666666667 0.004333333333333333 -2.1925333333333334 0.0006666666666666666 -4.3853333333333335 0.0016666666666666666 -6.578 0.0038 -0.023933333333333334 0.002533333333333333 -0.048466666666666665 -0.0038 -0.07186666666666666 -0.006333333333333333 -0.023466666666666667 -0.01753333333333333 -0.04533333333333334 -0.03286666666666666 -0.06413333333333332 -0.015333333333333332 -0.018799999999999997 -0.034466666666666666 -0.034133333333333335 -0.05613333333333333 -0.04506666666666666 -0.02173333333333333 -0.010866666666666665 -0.04546666666666666 -0.017066666666666667 -0.06973333333333333 -0.01813333333333333 -0.24879999999999997 -0.004066666666666666 -0.498 -0.0024 -0.7468666666666667 -0.0006666666666666666 -0.023 -0.0020666666666666663 -0.0462 0.0007333333333333333 -0.06813333333333332 0.008266666666666665 -0.021866666666666666 0.007533333333333333 -0.04186666666666666 0.0196 -0.05873333333333333 0.0354 -0.016866666666666665 0.015866666666666668 -0.030266666666666667 0.03506666666666666 -0.0392 0.05639999999999999 -0.008933333333333333 0.021333333333333333 -0.013266666666666666 0.044333333333333336 -0.012666666666666666 0.06739999999999999 -0.003333333333333333 2.1786 0.0006666666666666666 4.357799999999999 -0.002 6.5366 0.0005333333333333334 0.15046666666666667 -0.044866666666666666 0.2974 -0.13019999999999998 0.4212666666666667 -0.08533333333333333 0.1238 -0.20653333333333335 0.2185333333333333 -0.34726666666666667 0.2716666666666666 -0.16206666666666666 0.04786666666666667 -0.3324 0.061066666666666665 -0.49993333333333334 0.038599999999999995 -0.16753333333333334 -0.022399999999999996 -0.32839999999999997 -0.07993333333333333 -0.4722 -0.16873333333333332 -0.5182 -0.29266666666666663 -1.0364666666666666 -0.5853333333333333 -1.5546666666666664 -0.8780666666666666 -0.03433333333333333 -0.0162 -0.06286666666666665 -0.0426 -0.08173333333333332 -0.0756 -0.018866666666666664 -0.033 -0.027200000000000002 -0.071 -0.0238 -0.10886666666666667V4.7126c-0.0036 -0.0426 0.006333333333333333 -0.08533333333333333 0.028466666666666668 -0.12193333333333334 0.022066666666666665 -0.03666666666666667 0.0552 -0.06533333333333333 0.09459999999999999 -0.08206666666666666 1.9408666666666667 -1.0930666666666666 3.881266666666667 -2.187333333333333 5.821400000000001 -3.2827333333333333 0.03373333333333333 -0.023 0.07353333333333333 -0.03526666666666667 0.1144 -0.035199999999999995 0.04073333333333333 0 0.08059999999999999 0.012399999999999998 0.1142 0.03553333333333333 1.9407999999999999 1.0934666666666666 3.8814666666666664 2.1872666666666665 5.822 3.2814666666666668 0.039266666666666665 0.0172 0.07213333333333333 0.04613333333333333 0.09406666666666666 0.08286666666666666 0.022 0.03673333333333333 0.03186666666666667 0.07946666666666666 0.028399999999999998 0.12213333333333333 -0.00039999999999999996 2.191533333333333 -0.0005333333333333334 4.383333333333333 -0.0006666666666666666 6.575333333333333 0.0034000000000000002 0.03793333333333333 -0.004733333333333333 0.07613333333333333 -0.023333333333333334 0.1094 -0.018533333333333332 0.03333333333333333 -0.046799999999999994 0.06033333333333333 -0.08086666666666667 0.07733333333333334 -1.9111333333333331 1.0806666666666667 -3.823266666666666 2.1596666666666664 -5.7364 3.2372 -0.0914 0.051 -0.1996 0.13293333333333332 -0.30646666666666667 0.0712 -0.5010666666666667 -0.2836666666666666 -0.996 -0.5782666666666666 -1.4954 -0.8645333333333333 -0.02553333333333333 -0.019466666666666667 -0.05633333333333333 -0.031 -0.08839999999999999 -0.03293333333333333 -0.03206666666666666 -0.0019333333333333331 -0.064 0.005733333333333333 -0.09166666666666667 0.02213333333333333 -0.21993333333333334 0.12886666666666666 -0.4514666666666667 0.23693333333333333 -0.6915333333333333 0.32266666666666666 -0.10826666666666665 0.043866666666666665 -0.24139999999999998 0.05633333333333333 -0.3159333333333333 0.15673333333333334 0.09499999999999999 0.10333333333333333 0.21 0.18619999999999998 0.3381333333333333 0.24353333333333332 0.584 0.3381333333333333 1.1683999999999999 0.6760666666666666 1.7530000000000001 1.0135333333333332 0.1933333333333333 0.12146666666666667 0.4158 0.18886666666666665 0.6439999999999999 0.19526666666666664 0.2282 0.006333333333333333 0.454 -0.048600000000000004 0.6538666666666666 -0.1592 1.9474666666666665 -1.0980666666666665 3.894933333333333 -2.1966666666666663 5.842266666666667 -3.295866666666667 0.19473333333333334 -0.10166666666666666 0.3583333333333333 -0.254 0.4736 -0.44086666666666663 0.11533333333333332 -0.187 0.178 -0.4016 0.18153333333333332 -0.6212V4.678533333333333c-0.0015999999999999999 -0.21146666666666664 -0.058866666666666664 -0.41879999999999995 -0.1658 -0.6012666666666666 -0.107 -0.18246666666666667 -0.2601333333333333 -0.3335333333333333 -0.44386666666666663 -0.43826666666666664Z" fill="#000000" stroke-width="0.6667"></path>
</svg>