<svg width="138" height="40" viewBox="0 0 138 40" fill="none" xmlns="http://www.w3.org/2000/svg">
<path d="M47.7204 22.194C46.5459 21.5334 45.9278 20.9986 45.9278 20.2436C45.9278 19.2683 46.7623 18.6706 48.0913 18.6706C49.6367 18.6706 50.9965 19.3312 50.9965 19.3312L52.0783 15.9651C52.0783 15.9651 51.0893 15.1786 48.1531 15.1786C44.0734 15.1786 41.2299 17.5695 41.2299 20.9042C41.2299 22.7918 42.5589 24.2389 44.3206 25.2771C45.7424 26.095 46.2369 26.6927 46.2369 27.5421C46.2369 28.4545 45.526 29.178 44.197 29.178C42.2189 29.178 40.3645 28.1398 40.3645 28.1398L39.2209 31.506C39.2209 31.506 40.9517 32.67 43.8261 32.67C48.0295 32.67 51.0274 30.5622 51.0274 26.7871C51.0893 24.7108 49.5439 23.2636 47.7204 22.194Z" fill="black"/>
<path d="M64.4725 15.1157C62.4016 15.1157 60.7944 16.1224 59.5272 17.6324L59.4654 17.601L61.258 8.03732H56.5601L52.0168 32.3554H56.6837L58.2291 24.0501C58.8473 20.9042 60.4235 18.9851 61.9069 18.9851C62.9577 18.9851 63.3598 19.7087 63.3598 20.7469C63.3598 21.4075 63.2979 22.194 63.1434 22.8546L61.3815 32.3869H66.0487L67.872 22.5715C68.0884 21.5334 68.2122 20.3065 68.2122 19.4571C68.2741 16.7201 66.9137 15.1157 64.4725 15.1157Z" fill="black"/>
<path d="M78.8439 15.1155C73.2185 15.1155 69.4788 20.2749 69.4788 26.032C69.4788 29.7127 71.7042 32.7013 75.9074 32.7013C81.4396 32.7013 85.1486 27.6679 85.1486 21.7849C85.1799 18.3559 83.2328 15.1155 78.8439 15.1155ZM76.5566 29.0206C74.9491 29.0206 74.3005 27.6364 74.3005 25.9061C74.3005 23.1691 75.6909 18.7334 78.2253 18.7334C79.8947 18.7334 80.4201 20.1805 80.4201 21.5962C80.4201 24.5534 79.0291 29.0206 76.5566 29.0206Z" fill="black"/>
<path d="M97.1407 15.1155C93.9884 15.1155 92.1958 17.9469 92.1958 17.9469H92.1339L92.4122 15.3987H88.2703C88.0539 17.129 87.683 19.7401 87.3121 21.722L84.0672 39.0875H88.7344L90.0323 32.0407H90.1248C90.1248 32.0407 91.0831 32.6698 92.8757 32.6698C98.3773 32.6698 101.962 26.9443 101.962 21.1558C101.962 17.9784 100.571 15.1155 97.1407 15.1155ZM92.6905 29.115C91.4846 29.115 90.7741 28.4229 90.7741 28.4229L91.5465 23.9871C92.1032 21.0299 93.6175 19.0479 95.2249 19.0479C96.6466 19.0479 97.0788 20.4007 97.0788 21.6591C97.0788 24.7106 95.2862 29.115 92.6905 29.115Z" fill="black"/>
<path d="M108.638 8.28889C107.154 8.28889 105.949 9.48431 105.949 11.0573C105.949 12.4729 106.815 13.4482 108.144 13.4482H108.206C109.658 13.4482 110.925 12.4415 110.956 10.6798C110.987 9.26408 110.06 8.28889 108.638 8.28889Z" fill="black"/>
<path d="M102.086 32.3554H106.784L109.967 15.4932H105.239L102.086 32.3554Z" fill="black"/>
<path d="M121.836 15.4617H118.59L118.745 14.6753C119.023 13.0394 119.95 11.5923 121.527 11.5923C122.361 11.5923 123.01 11.8439 123.01 11.8439L123.938 8.1317C123.938 8.1317 123.134 7.7227 121.403 7.7227C119.734 7.7227 118.096 8.19463 116.829 9.29566C115.222 10.6799 114.48 12.6618 114.109 14.6753L113.985 15.4617H111.822L111.142 19.0481H113.305L110.833 32.3554H115.5L117.973 19.0481H121.187L121.836 15.4617Z" fill="black"/>
<path d="M133.086 15.4932C133.086 15.4932 130.15 22.9805 128.852 27.0702H128.79C128.697 25.7489 127.647 15.4932 127.647 15.4932H122.732L125.544 30.9712C125.606 31.3172 125.576 31.5375 125.452 31.7576C124.896 32.8273 124 33.8655 122.917 34.6205C122.052 35.2811 121.063 35.6901 120.291 35.9732L121.588 40C122.547 39.7798 124.494 38.9933 126.163 37.4203C128.295 35.3755 130.274 32.261 132.283 27.9825L138 15.4932H133.086Z" fill="black"/>
<path d="M29.6292 7.50128C29.6016 7.30467 29.4361 7.1923 29.2982 7.1923C29.1602 7.1923 26.4291 7.13614 26.4291 7.13614C26.4291 7.13614 24.1393 4.88906 23.9186 4.63626C23.6979 4.41155 23.2565 4.46773 23.0909 4.5239C23.0909 4.5239 22.6495 4.66434 21.9323 4.88906C21.8219 4.49582 21.6288 4.0183 21.3805 3.51271C20.5805 1.93974 19.3666 1.09708 17.932 1.09708C17.8217 1.09708 17.7389 1.09708 17.6286 1.12517C17.5734 1.06899 17.5458 1.01281 17.4906 0.984729C16.8561 0.310598 16.0561 -0.0264666 15.0905 0.00162211C13.2421 0.0577996 11.3937 1.43414 9.87641 3.84977C8.82808 5.56319 8.02803 7.69794 7.77974 9.35514C5.65549 10.0293 4.16575 10.5068 4.11057 10.5068C3.03465 10.8439 3.00706 10.872 2.86912 11.9113C2.81395 12.6977 0 34.8597 0 34.8597L23.6151 39.0168L33.8502 36.4327C33.8226 36.4327 29.6568 7.69794 29.6292 7.50128ZM20.746 5.2823C20.1942 5.45083 19.5873 5.64745 18.9252 5.87216C18.9252 4.91714 18.7873 3.56888 18.3734 2.44534C19.7804 2.67005 20.4701 4.29919 20.746 5.2823ZM17.6837 6.23729C16.4423 6.63056 15.0905 7.05191 13.7387 7.4732C14.1249 5.98452 14.8422 4.5239 15.725 3.5408C16.0561 3.17564 16.5251 2.7824 17.0492 2.55769C17.601 3.65315 17.7113 5.19803 17.6837 6.23729ZM15.1457 1.26561C15.5871 1.26561 15.9457 1.34988 16.2492 1.57459C15.7526 1.82739 15.256 2.22063 14.8146 2.72623C13.6283 4.0183 12.7179 6.0126 12.3593 7.9507C11.2282 8.3159 10.1247 8.65295 9.13154 8.96193C9.79365 5.90025 12.3041 1.34988 15.1457 1.26561Z" fill="#95BF47"/>
<path d="M29.2982 7.1923C29.1602 7.1923 26.4291 7.13614 26.4291 7.13614C26.4291 7.13614 24.1393 4.88906 23.9186 4.63626C23.8358 4.55199 23.7251 4.49605 23.6148 4.49605L23.6151 39.0168L33.8502 36.4327C33.8502 36.4327 29.6841 7.69813 29.6565 7.50153C29.6013 7.30492 29.4361 7.1923 29.2982 7.1923Z" fill="#5E8E3E"/>
<path d="M17.9319 12.5575L16.7456 17.0798C16.7456 17.0798 15.4214 16.4619 13.8489 16.5742C11.5316 16.7146 11.5316 18.2034 11.5316 18.5685C11.6695 20.5909 16.8836 21.0403 17.187 25.7873C17.4077 29.5231 15.2559 32.0791 12.1109 32.2758C8.35896 32.4724 6.28988 30.2253 6.28988 30.2253L7.08993 26.7704C7.08993 26.7704 9.18659 28.3715 10.8419 28.2591C11.9178 28.203 12.3316 27.276 12.2764 26.6581C12.1109 24.0177 7.86238 24.1862 7.58651 19.8325C7.3658 16.181 9.71076 12.5013 14.8973 12.1643C16.9112 12.0238 17.9319 12.5575 17.9319 12.5575Z" fill="white"/>
</svg>
