<svg width="114" height="42" viewBox="0 0 114 42" fill="none" xmlns="http://www.w3.org/2000/svg">
<path d="M45.2398 0.434448H9.23958C6.44817 0.434448 4.66045 3.3957 5.96644 5.85781L9.5669 12.6625H3.0391C1.71353 12.6625 0.63916 13.7357 0.63916 15.0584C0.63916 15.4469 0.733765 15.8299 0.915365 16.1739L12.4975 38.0497C13.1184 39.2183 14.5712 39.6643 15.7424 39.0458C16.1676 38.8212 16.5155 38.4739 16.7406 38.0497L19.8865 32.1402L23.8328 39.5959C25.2214 42.2186 28.9839 42.223 30.378 39.6035L48.4227 5.72C49.6993 3.32409 47.9594 0.434448 45.2398 0.434448ZM29.0687 14.9119L21.2882 29.5251C20.875 30.3031 19.9072 30.5993 19.1275 30.187C18.8448 30.0372 18.6143 29.8072 18.4642 29.5251L10.7587 14.9738C10.3455 14.1958 10.6434 13.2311 11.4231 12.8188C11.6526 12.6972 11.907 12.6343 12.1658 12.6332H27.6953C28.5544 12.6332 29.2503 13.3277 29.2503 14.1849C29.2503 14.4377 29.1884 14.6873 29.0687 14.9119ZM83.5301 16.1533H79.5926V29.6206C79.5915 29.8756 79.3849 30.0828 79.1282 30.0839H76.0911C75.8355 30.0828 75.6278 29.8766 75.6267 29.6206V16.1533H71.6653C71.4195 16.1631 71.2118 15.9721 71.202 15.7269C71.202 15.7225 71.202 15.7182 71.202 15.7127V13.3309C71.2042 13.0857 71.4054 12.8882 71.6522 12.8904C71.6566 12.8904 71.662 12.8904 71.6663 12.8904H83.529C83.7846 12.8784 84.0032 13.0749 84.0162 13.3299V15.7127C84.0032 15.9699 83.7857 16.1652 83.5301 16.1533ZM96.1714 29.9873C95.3602 30.1023 93.9955 30.2879 91.4911 30.2879C88.5007 30.2879 85.8583 29.524 85.8583 25.3148V17.6312C85.8583 13.421 88.5247 12.681 91.514 12.681C94.0161 12.681 95.3591 12.8665 96.1714 12.9815C96.4955 13.0271 96.6357 13.1443 96.6357 13.4449V15.5988C96.6347 15.8538 96.428 16.0611 96.1714 16.0621H91.2835C90.1939 16.0621 89.8002 16.4322 89.8002 17.6356V19.7407H95.9866C96.2421 19.7407 96.4498 19.9479 96.4509 20.204V22.4003C96.4509 22.6553 96.2432 22.8625 95.9866 22.8636H89.8002V25.3159C89.8002 26.5182 90.1939 26.8893 91.2835 26.8893H96.1714C96.427 26.8904 96.6347 27.0966 96.6357 27.3527V29.5044C96.6357 29.8018 96.4966 29.9407 96.1714 29.9873ZM113.663 30.0796H109.977C109.676 30.0796 109.537 29.983 109.375 29.7334L106.179 24.6703L103.283 29.6216C103.12 29.8994 102.959 30.085 102.706 30.085H99.2749C99.0433 30.085 98.9269 29.9461 98.9269 29.7844C98.9313 29.728 98.9476 29.6726 98.9726 29.6216L103.994 21.2652L98.9204 13.3309C98.8943 13.2886 98.8791 13.2409 98.8747 13.192C98.8921 13.0152 99.0444 12.8839 99.2216 12.8915H102.954C103.208 12.8915 103.394 13.1226 103.531 13.3309L106.496 18.0034L109.367 13.3309C109.483 13.1226 109.691 12.8915 109.945 12.8915H113.376C113.553 12.8839 113.706 13.0152 113.724 13.192C113.719 13.2409 113.703 13.2886 113.677 13.3309L108.628 21.3151L113.893 29.6227C113.934 29.6933 113.958 29.7725 113.963 29.8539C113.965 29.9873 113.849 30.0796 113.663 30.0796ZM68.9402 12.9349C68.9674 12.9349 68.9935 12.9381 69.0196 12.9436C69.212 12.988 69.3327 13.179 69.2882 13.3711C69.2882 13.3711 65.269 27.5784 65.2038 27.7704C64.6536 29.4252 63.2453 30.276 61.6316 30.276C59.9374 30.276 58.6064 29.4643 58.0572 27.7661C58.0116 27.6261 53.9022 13.3733 53.9022 13.3733C53.8957 13.3472 53.8935 13.3201 53.8935 13.293C53.8935 13.0955 54.0534 12.936 54.2513 12.9349H57.5636C57.7343 12.9349 57.8811 13.0564 57.9137 13.2235L61.2825 25.6545C61.3293 25.9051 61.3978 26.0006 61.6066 26.0006C61.8154 26.0006 61.885 25.9084 61.9306 25.6545L65.2962 13.2268C65.3288 13.0597 65.4756 12.9392 65.6464 12.9381L68.9402 12.9349Z" fill="#E50056"/>
</svg>
