<svg width="181" height="38" viewBox="0 0 181 38" fill="none" xmlns="http://www.w3.org/2000/svg">
<path fill-rule="evenodd" clip-rule="evenodd" d="M55.5641 0.865051H5.80796C2.67177 0.865051 0.0993971 3.42817 0.134635 6.55306V25.478C0.134635 28.6029 2.67177 31.166 5.8432 31.166H29.3822L40.1651 37.1349L37.7336 31.166H55.5641C58.7003 31.166 61.2727 28.638 61.2727 25.478V6.55306C61.2374 3.39306 58.7003 0.865051 55.5641 0.865051ZM4.75082 5.25395C4.04606 5.28906 3.51749 5.56995 3.16511 6.02639C2.81273 6.48284 2.70701 7.04462 2.77749 7.71173C4.25749 17.0513 5.63177 23.3362 6.90034 26.6015C7.39367 27.7953 7.95748 28.3571 8.66224 28.322C9.71939 28.2518 10.9527 26.8122 12.4327 24.0033C13.208 22.4233 14.406 20.0358 16.027 16.8406C17.366 21.5455 19.2337 25.0918 21.5594 27.4442C22.1937 28.1113 22.8984 28.4273 23.5327 28.3571C24.0965 28.322 24.5546 28.006 24.8718 27.4442C25.1184 26.9878 25.2241 26.426 25.1889 25.794C25.0479 23.5118 25.2594 20.3518 25.8937 16.314C26.5279 12.1357 27.3384 9.11618 28.3251 7.32551C28.5365 6.93928 28.607 6.58817 28.5717 6.13173C28.5365 5.56995 28.2546 5.07839 27.7965 4.72728C27.3384 4.37617 26.8098 4.1655 26.2108 4.23573C25.4708 4.27084 24.9422 4.62195 24.5546 5.32417C23.0041 8.13306 21.9118 12.6975 21.2422 19.0175C20.2908 16.63 19.4803 13.8211 18.8813 10.5206C18.5994 9.04596 17.9299 8.34373 16.8375 8.41396C16.0975 8.44907 15.4632 8.97574 14.9699 9.92374L9.50796 20.3166C8.59177 16.7002 7.74606 12.3113 6.97082 7.07973C6.75939 5.7455 6.01939 5.14862 4.75082 5.25395ZM52.9213 7.04462C54.6832 7.43084 56.0222 8.37885 56.9032 9.92374C57.7136 11.258 58.1013 12.8731 58.1013 14.8393C58.1013 17.4024 57.467 19.7549 56.1632 21.8966C54.6479 24.3895 52.7098 25.6184 50.2784 25.6184C49.8555 25.6184 49.3974 25.5833 48.9394 25.478C47.1775 25.0918 45.8384 24.1438 44.9575 22.5989C44.147 21.2295 43.7594 19.5793 43.7594 17.6833C43.7594 15.1202 44.3936 12.7677 45.6975 10.6611C47.2127 8.16818 49.186 6.93929 51.5822 6.93929C51.9698 6.90418 52.4279 6.93929 52.9213 7.04462ZM51.8641 20.4922C52.7803 19.6846 53.4146 18.4558 53.767 16.8055C53.8727 16.2437 53.9432 15.6117 53.9432 14.9797C53.9432 14.2424 53.8022 13.47 53.4851 12.6975C53.0974 11.7144 52.6041 11.1877 52.0051 11.0824C51.0889 10.9069 50.2432 11.3984 49.3974 12.6273C48.7279 13.5753 48.3051 14.5584 48.0584 15.5766C47.9174 16.1384 47.8822 16.7704 47.8822 17.4024C47.8822 18.1398 48.0232 18.9122 48.3403 19.6846C48.7279 20.6678 49.2213 21.1944 49.8203 21.2998C50.4546 21.4402 51.1241 21.1593 51.8641 20.4922ZM41.2222 9.92374C40.306 8.34373 38.967 7.39573 37.2403 7.04462C36.7822 6.93929 36.3241 6.90417 35.9013 6.90417C33.5051 6.90417 31.567 8.13307 30.0165 10.626C28.7127 12.7326 28.0784 15.0851 28.0784 17.6482C28.0784 19.5793 28.466 21.1944 29.2765 22.5638C30.1927 24.1438 31.4965 25.0918 33.2584 25.4429C33.7165 25.5482 34.1746 25.5833 34.5975 25.5833C37.0289 25.5833 38.967 24.3544 40.4822 21.8615C41.786 19.7198 42.4203 17.3673 42.4203 14.8042C42.4203 12.8731 42.0327 11.258 41.2222 9.92374ZM38.086 16.8055C37.7336 18.4558 37.0994 19.6846 36.1832 20.4922C35.4432 21.1242 34.7737 21.4051 34.1746 21.2998C33.5756 21.1593 33.0822 20.6678 32.6946 19.6846C32.3775 18.9122 32.2365 18.1398 32.2365 17.4024C32.2365 16.7704 32.2718 16.1735 32.4127 15.5766C32.6241 14.5584 33.047 13.5753 33.7517 12.6273C34.5622 11.3984 35.4432 10.9069 36.3594 11.0824C36.9584 11.2229 37.4517 11.7144 37.8394 12.6975C38.1565 13.47 38.2975 14.2424 38.2975 14.9797C38.2622 15.6117 38.227 16.2437 38.086 16.8055Z" fill="#7F54B3"/>
<path fill-rule="evenodd" clip-rule="evenodd" d="M67.5803 9.71307C65.8889 11.3633 65.0784 13.4349 65.0784 15.998C65.0784 18.7015 65.8889 20.9135 67.5451 22.5989C69.2012 24.2842 71.3508 25.1269 74.0289 25.1269C74.8041 25.1269 75.685 24.9864 76.6365 24.7407V20.7029C75.7555 20.9486 75.0155 21.0891 74.346 21.0891C73.007 21.0891 71.985 20.6327 71.1746 19.7549C70.3641 18.842 69.9765 17.6482 69.9765 16.1384C69.9765 14.734 70.3641 13.5402 71.1393 12.6624C71.9498 11.7495 72.9012 11.2931 74.0993 11.2931C74.8746 11.2931 75.685 11.4335 76.6012 11.6793V7.64151C75.7908 7.43084 74.8393 7.32551 73.8879 7.32551C71.3508 7.25528 69.2365 8.06284 67.5803 9.71307ZM84.9174 7.25529C82.6269 7.25529 80.8298 8.02773 79.526 9.53751C78.2222 11.0473 77.5879 13.1891 77.5879 15.9277C77.5879 18.8771 78.2222 21.1593 79.526 22.7393C80.7946 24.3193 82.6622 25.0918 85.1289 25.0918C87.4898 25.0918 89.3222 24.2842 90.5908 22.7393C91.8593 21.1593 92.5288 18.9473 92.5288 16.1033C92.5288 13.2593 91.8946 11.0824 90.5908 9.53751C89.2165 7.99262 87.3488 7.25529 84.9174 7.25529ZM86.8908 20.1762C86.4327 20.8784 85.7631 21.2295 84.9174 21.2295C84.1069 21.2295 83.5079 20.8784 83.085 20.1762C82.6622 19.474 82.4508 18.0695 82.4508 15.9629C82.4508 12.6975 83.2612 11.0824 84.9527 11.0824C86.7146 11.0824 87.5955 12.7326 87.5955 16.0331C87.5955 18.1046 87.3488 19.474 86.8908 20.1762ZM104.862 7.71173L103.946 11.5037C103.735 12.4869 103.488 13.47 103.312 14.4882L102.818 17.1215C102.36 14.4882 101.691 11.3633 100.88 7.67662H95.1012L92.9165 24.6353H97.2507L98.4136 12.9433L101.374 24.6353H104.475L107.329 12.9784L108.562 24.6353H113.108L110.817 7.67662H104.862V7.71173ZM125.653 7.71173L124.736 11.5037C124.525 12.4869 124.278 13.47 124.102 14.4882L123.609 17.1215C123.151 14.4882 122.481 11.3633 121.671 7.67662H115.892L113.707 24.6353H118.041L119.204 12.9433L122.164 24.6353H125.265L128.084 12.9784L129.317 24.6353H133.863L131.573 7.67662H125.653V7.71173ZM143.906 17.9642V14.4531H139.818V11.3282H144.505V7.71173H135.202V24.6704H144.505V21.054H139.783V17.9642H143.906ZM157.473 15.2957C157.931 14.5233 158.213 13.7157 158.213 12.9082C158.213 11.3282 157.578 10.0291 156.345 9.11618C155.112 8.20329 153.385 7.71173 151.235 7.71173H145.879V24.6704H150.46V16.946H150.531L154.266 24.6704H159.129L155.429 17.0162C156.31 16.63 156.979 16.0682 157.473 15.2957ZM150.425 15.0149V10.9771C151.517 11.0122 152.293 11.1877 152.786 11.5388C153.244 11.89 153.491 12.4517 153.491 13.2242C153.455 14.3829 152.434 14.9797 150.425 15.0149ZM160.891 9.71307C159.234 11.3633 158.389 13.4349 158.389 15.998C158.389 18.7015 159.199 20.9135 160.855 22.5989C162.512 24.2842 164.661 25.1269 167.339 25.1269C168.114 25.1269 168.995 24.9864 169.947 24.7407V20.7029C169.066 20.9486 168.326 21.0891 167.656 21.0891C166.317 21.0891 165.295 20.6327 164.485 19.7549C163.674 18.842 163.287 17.6482 163.287 16.1384C163.287 14.734 163.674 13.5402 164.45 12.6624C165.26 11.7495 166.212 11.2931 167.41 11.2931C168.185 11.2931 168.995 11.4335 169.912 11.6793V7.64151C169.101 7.43084 168.15 7.32551 167.198 7.32551C164.696 7.25528 162.582 8.06284 160.891 9.71307ZM175.796 21.0189V17.9291H179.884V14.418H175.796V11.2931H180.518V7.67662H171.215V24.6353H180.554V21.0189H175.796Z" fill="black"/>
</svg>
