<svg xmlns="http://www.w3.org/2000/svg" fill="none" viewBox="0 0 24 24" id="Nextjs--Streamline-Svg-Logos" height="24" width="24">
  <desc>
    Nextjs Streamline Icon: https://streamlinehq.com
  </desc>
  <path fill="#000000" d="M19.965375 9.633075v0.755525h-1.623775V14.36325h-0.81195V10.3886h-1.657575v-0.755525h4.0933Zm0.1825 4.27955c0.0572 0 0.10725 0.0206 0.1496 0.0618 0.042925 0.0412 0.06435 0.090525 0.06495 0.148 -0.0006 0.039025 -0.0105 0.0748 -0.0303 0.106775 -0.02035 0.032525 -0.046175 0.058 -0.078675 0.076425 -0.0319 0.018975 -0.0671 0.028725 -0.105575 0.028725 -0.05945 0 -0.11005 -0.020575 -0.1524 -0.061775 -0.042325 -0.0412 -0.063275 -0.091075 -0.062725 -0.15015 -0.00055 -0.057475 0.0204 -0.1068 0.062725 -0.148 0.04235 -0.0412 0.09295 -0.0618 0.1524 -0.0618ZM4.055725 14.36325 1.06189 10.642175v3.7191H0.25V9.6311h1.01486L5.04715 14.327825l0.000075 -3.939225 -0.00035 -0.755525h4.093275v0.755525H5.8591v1.215375h2.638625v0.755525H5.8591v1.24825h3.28105v0.7555H4.055725Zm7.68655 -2.010975 0.5321 0.661575 -1.090325 1.354975H10.1185l1.623775 -2.01655Zm-0.558225 -2.717225 1.37375 1.70605 1.36945 -1.7008 1.06255 -0.00165 -1.900025 2.363125 1.903075 2.36345H13.92725L10.12155 9.63505h1.0625Zm10.34955 2.706625h0.359775v1.3861c-0.000525 0.1274 -0.0281 0.23635 -0.08195 0.32795 -0.05445 0.091625 -0.12985 0.16155 -0.22665 0.210875 -0.09625 0.048775 -0.20905 0.073725 -0.337225 0.073725 -0.1172 0 -0.222225 -0.02115 -0.31575 -0.06235 -0.093525 -0.041175 -0.1678 -0.102975 -0.22225 -0.1843 -0.05505 -0.0813 -0.082 -0.182675 -0.082 -0.3041h0.360375c0.000525 0.053125 0.012625 0.0992 0.035725 0.137675 0.023075 0.0385 0.054975 0.067775 0.095725 0.088375 0.0412 0.0206 0.088575 0.0309 0.1419 0.0309 0.057775 0 0.1073 -0.01195 0.147425 -0.036325 0.04015 -0.02385 0.070975 -0.059625 0.09245 -0.10735 0.020875 -0.04715 0.031925 -0.1057 0.03245 -0.175075v-1.3861Zm1.8401 0.542075c-0.008775 -0.084025 -0.0473 -0.1496 -0.1144 -0.196225 -0.0677 -0.047175 -0.155125 -0.070475 -0.262425 -0.070475 -0.07535 0 -0.140225 0.0114 -0.19415 0.033625 -0.053925 0.02275 -0.095725 0.0531 -0.12435 0.0916 -0.028575 0.038475 -0.0429 0.0824 -0.044025 0.131725 0 0.0412 0.0099 0.076975 0.029175 0.1068 0.01925 0.03035 0.045075 0.055825 0.07865 0.076425 0.033 0.02115 0.06985 0.038475 0.11005 0.052575 0.040675 0.0141 0.081425 0.026025 0.1221 0.035775l0.187575 0.046075c0.0754 0.01735 0.148575 0.040675 0.218425 0.070475 0.06985 0.029275 0.133125 0.066675 0.18865 0.111675 0.0556 0.045 0.0996 0.0992 0.13205 0.162625 0.03245 0.063425 0.048975 0.137675 0.048975 0.223325 0 0.115475 -0.0297 0.21685 -0.0897 0.30465 -0.05995 0.087275 -0.146325 0.155575 -0.25965 0.2049 -0.112775 0.0488 -0.249175 0.073725 -0.4098 0.073725 -0.15515 0 -0.290475 -0.02385 -0.40435 -0.07155 -0.1144 -0.04715 -0.20355 -0.11655 -0.267925 -0.207625 -0.06435 -0.09105 -0.099 -0.202175 -0.10395 -0.332825h0.3565c0.00495 0.0683 0.02695 0.125225 0.06435 0.1713 0.03795 0.045525 0.08745 0.07915 0.147975 0.1019 0.061075 0.022225 0.12925 0.033625 0.20465 0.033625 0.078675 0 0.147975 -0.011925 0.207925 -0.03525 0.0594 -0.0233 0.106175 -0.055825 0.13975 -0.0981 0.0341 -0.04175 0.051175 -0.091075 0.0517 -0.14745 -0.000525 -0.0515 -0.015975 -0.094325 -0.045675 -0.12795 -0.03025 -0.0336 -0.07205 -0.061775 -0.12545 -0.08455 -0.05385 -0.022775 -0.1166 -0.043375 -0.1881 -0.06125l-0.227725 -0.057475c-0.1645 -0.041725 -0.2949 -0.10515 -0.390075 -0.19025 -0.095675 -0.085125 -0.14305 -0.197875 -0.14305 -0.33935 0 -0.116 0.031925 -0.2179 0.09635 -0.3052 0.06375 -0.08725 0.15125 -0.155025 0.261825 -0.203275 0.111125 -0.048775 0.23655 -0.072625 0.37625 -0.072625 0.14195 0 0.26625 0.02385 0.37355 0.072625 0.10725 0.04825 0.19145 0.115475 0.252475 0.201125 0.061075 0.08565 0.092975 0.18375 0.09465 0.294875h-0.3488Z" stroke-width="0.25"></path>
</svg>